# xmcd
#
# Track frame offsets:
#	150
#	15165
#	29315
#	44895
#	58345
#	78880
#	94320
#	108890
#	125008
#	143105
#
# Disc length: 2119 seconds
#
# Revision: 0
# Processed by: cddbd v1.4PL0 Copyright (c) Steve Scherf et al.
# Submitted via: EasyCDDAExtractor 4.6.9.1
#
DISCID=8308450a
DTITLE=Luis Manuel  E Elas  - Tempo De Festa
DYEAR=199
DGENRE=
TTITLE0=Tempo  De Festa
TTITLE1=Casar Com Uma Moca Portuguesa
TTITLE2=Linda Moreninha
TTITLE3=Amigos Da  Onca
TTITLE4=Nunca Sei Onde Estas
TTITLE5=Es Demais
TTITLE6=Quem E, Que E
TTITLE7=TaoLouca
TTITLE8=Mensagem De Paz
TTITLE9=Portugal 
EXTD=
EXTT0=
EXTT1=
EXTT2=
EXTT3=
EXTT4=
EXTT5=
EXTT6=
EXTT7=
EXTT8=
EXTT9=
PLAYORDER=
